<svg width="61" height="69" viewBox="0 0 61 69" fill="none" xmlns="http://www.w3.org/2000/svg">
<g clip-path="url(#clip0_18_222)">
<path fill-rule="evenodd" clip-rule="evenodd" d="M49.3113 54.6832L50.3851 54.7524C50.5466 55.0342 50.7151 55.328 50.8848 55.6255C51.0538 55.5106 51.1754 55.4282 51.3592 55.3036C51.7325 55.5305 52.1183 55.7654 52.4974 55.9957C52.5118 56.2923 52.524 56.5467 52.5365 56.8123C52.8031 56.7007 53.0128 56.6122 53.2094 56.5295C53.4055 57.021 53.5785 57.4531 53.7651 57.9206C53.6956 57.9364 53.5216 57.9769 53.292 58.0301L53.215 58.6582C52.3796 58.8549 51.6923 59.4432 50.807 59.1696C50.6857 59.7227 50.0981 59.8695 49.7305 59.9184C48.8589 60.0337 48.0705 60.5915 47.2684 60.5541C46.3324 60.51 45.5669 60.9268 44.728 61.0833C43.7213 61.2716 42.684 61.4751 41.6747 61.7489C40.6904 62.0157 39.6458 62.38 38.5664 62.2791C36.7441 63.063 34.7417 63.037 32.8342 63.4269C31.3486 63.7304 29.8387 64.1307 28.2773 64.1331C27.7341 64.1342 27.1588 64.6038 26.688 63.8258C26.1968 64.4729 25.6705 64.8138 24.8708 64.7379C24.3095 64.685 23.7028 64.7672 23.1413 64.8938C21.6716 65.2237 20.1773 65.2629 18.695 65.4378C17.3339 65.5986 15.9552 65.5955 14.6193 65.7712C12.819 66.0083 11.1213 65.6519 9.37409 65.6398C9.06618 65.6377 8.78 65.3941 8.46384 65.3306C8.12128 65.2618 7.64891 65.3882 7.42743 65.2232C7.1399 65.0089 6.88809 65.1697 6.63987 65.1081C6.27357 65.017 5.91706 64.8967 5.48285 64.7668C5.35041 64.496 4.80981 64.3562 4.87385 63.8429C4.89026 63.7137 4.64665 63.4489 4.51108 63.4473C3.48395 63.4344 3.34022 62.6628 2.97685 61.9962C2.95798 60.7437 3.73594 59.9168 5.09463 59.4631C5.27325 59.4031 5.4615 59.3473 5.64748 59.3329C6.37771 59.2769 7.14083 59.3479 7.83101 59.1636C8.58986 58.9614 9.29845 59.0268 10.0322 59.0569C10.7368 59.086 11.5425 59.3195 12.1184 59.0797C12.7602 58.8121 13.4547 59.3463 13.9627 58.7643C14.3834 59.2474 14.9359 58.6007 15.3838 58.8492C15.9395 58.4889 16.5446 58.7409 17.1164 58.6631C17.6464 58.5912 18.1865 58.5646 18.6972 58.4793C20.3798 58.1962 22.0641 58.0734 23.757 58.0049C24.5513 57.4809 25.4849 58.0873 26.3248 57.6331C27.0458 57.2434 27.931 57.38 28.7252 57.2755C29.6276 57.1566 30.5674 57.0827 31.4892 57.0082C32.3501 56.9383 33.2076 56.7821 34.0746 56.6944C35.353 56.5652 36.6068 56.1534 37.9131 56.1503C38.5296 55.6063 39.328 56.1614 40.0333 55.7619C40.6249 55.4262 41.4415 55.4149 42.1156 55.362C43.7612 55.2331 45.2774 54.6156 46.8869 54.4089C47.2682 54.3599 47.6494 54.3063 48.091 54.2465C48.1069 54.5864 48.1191 54.8408 48.138 55.2427C48.5454 55.0488 48.8709 54.8932 49.3113 54.6832Z" fill="#FF6E31"/>
<path fill-rule="evenodd" clip-rule="evenodd" d="M25.7446 37.4359C25.6521 37.5055 25.5721 37.5658 25.4926 37.6261C25.3289 37.3391 25.1646 37.0526 24.9614 36.6972C24.8344 36.9375 24.7529 37.0925 24.6224 37.3393C24.1813 37.2612 23.5652 37.3138 23.2777 37.063C22.8109 36.6565 22.4099 37.1699 21.9824 36.9993C21.5946 36.8445 20.9874 36.9768 20.7193 36.7516C20.282 36.3846 19.7766 36.5417 19.3296 36.4059C18.8912 36.2732 18.4875 36.0554 18.0364 35.8605C17.7756 35.9158 17.4673 35.9811 17.0619 36.0666C16.9451 35.8105 16.8299 35.5551 16.6272 35.1083C16.4157 35.5517 16.3454 35.6978 16.2323 35.9355C14.9231 35.1218 13.1971 35.4235 11.8757 34.6998C11.8581 34.5536 11.8421 34.4273 11.8007 34.0934C11.6367 34.4115 11.5677 34.5466 11.4866 34.7032C11.1425 34.5963 10.774 34.4818 10.3909 34.3622C10.3909 34.1462 10.3911 33.9286 10.3913 33.6101C10.2343 33.6953 10.1384 33.7475 9.9935 33.8264C9.83668 33.7407 9.65612 33.6418 9.40108 33.5026C9.2712 33.7073 9.1595 33.8832 9.05196 34.0528C8.73857 33.815 8.42419 33.5762 8.05258 33.2941C8.0526 33.1652 8.05285 32.9471 8.05249 32.6651C7.68259 32.801 7.35051 32.9227 6.92219 33.0802C6.47381 32.3489 5.42177 31.9555 5.19398 30.9963C5.35137 30.866 5.46233 30.7742 5.57385 30.6825C5.31428 30.401 5.17118 30.4653 4.7891 31.0362C4.68943 31.0359 4.58827 31.043 4.49125 31.0302C4.45132 31.0251 4.4201 30.9764 4.30078 30.8789C4.41986 30.6888 4.55221 30.4777 4.69864 30.2437C4.62908 30.0114 4.54912 29.7446 4.44026 29.3825C4.81207 29.5343 5.03857 29.626 5.31969 29.7409C5.26755 29.4079 5.22915 29.1604 5.16335 28.7413C5.67106 28.9931 5.98649 29.1499 6.34659 29.3283C6.24693 29.4198 6.15242 29.506 6.03755 29.6112C6.28502 29.7478 6.53504 29.8867 6.84098 30.0565L6.95423 29.1326C7.31965 28.9963 7.62957 28.8809 7.96315 28.7563C8.65276 29.0731 9.3551 29.3963 10.0724 29.726C10.4228 29.6294 11.6924 29.8618 12.2467 30.1379C12.3598 30.0605 12.4767 29.9803 12.6519 29.8607C12.9453 30.0135 13.2657 30.1802 13.6025 30.3556C13.4918 30.4499 13.3885 30.5392 13.2846 30.6278C13.3468 30.677 13.4264 30.7861 13.479 30.7748C14.0803 30.6497 14.6759 30.2853 15.2434 30.8585C15.3487 30.9647 15.7818 30.8095 16.0626 30.7707C17.3485 30.5939 18.4802 30.8291 19.4031 31.6276C19.6467 31.5849 19.9209 31.4844 20.177 31.5055C20.4787 31.53 20.9307 31.8091 21.0307 31.7197C21.5466 31.2569 21.7106 31.8716 22.0501 31.897C22.381 31.9223 22.6852 31.9592 23.0181 32.1252C23.5813 32.407 24.2765 32.5035 24.9313 32.6217C27.1328 33.0187 29.2602 33.5828 31.3406 34.3285C32.9467 34.9037 34.5941 35.3993 36.1166 36.1279C37.1421 36.618 38.2653 37.0839 39.0273 37.8254C39.7161 38.4941 40.5543 39.1015 41.0423 40.0246C40.9439 40.1375 40.8252 40.2744 40.688 40.4324C40.7446 40.5045 40.8241 40.605 40.9158 40.7205C40.5195 41.0034 40.117 41.2904 39.6645 41.6132C39.2144 41.4564 38.7498 41.248 38.5511 40.6265C38.451 40.969 38.3788 41.218 38.3003 41.4868L37.8659 41.4588C37.8113 41.2748 37.7641 41.113 37.7157 40.9475C37.5398 41.031 37.3783 41.1079 37.1587 41.2124C37.0187 41.0999 36.8798 40.9875 36.7439 40.8783C36.4876 41.0571 36.2158 41.2481 35.9355 41.4435C35.6157 41.0096 35.4031 40.6256 35.0912 40.3245C34.7885 40.0321 34.0544 40.2486 33.9804 39.5423C34.0524 39.4602 34.1721 39.3244 34.3586 39.1127C34.0424 39.0777 33.7517 39.0452 33.3488 39.0005C33.5266 39.2184 33.6102 39.3217 33.7874 39.5401C33.4039 39.4971 33.0762 39.5419 32.8723 39.4223C32.3898 39.1391 31.8801 38.9724 31.3368 38.7994C30.825 38.6366 30.3258 38.5497 29.8021 38.4647C29.3364 38.389 28.8996 38.1981 28.4344 38.1189C27.9431 38.0361 27.4142 38.0816 26.9371 37.9657C26.512 37.8627 26.136 37.6163 25.7446 37.4359Z" fill="#FF6E31"/>
<path fill-rule="evenodd" clip-rule="evenodd" d="M20.4103 2.63255L20.5517 1.47911C21.1319 1.01941 21.7617 0.818035 22.6579 0.956918C22.7267 1.08917 22.854 1.33323 23.0035 1.62132C24.0791 1.1281 24.3141 2.36411 25.1286 2.22282C26.1814 2.97335 26.9125 3.97199 28.0049 4.63834C28.1647 4.73588 28.2658 4.90876 28.3924 5.04828C29.2825 6.02723 30.3046 6.88079 31.3823 7.6948C32.1237 8.25536 32.7737 8.91857 33.4154 9.57567C34.1156 10.2928 34.856 10.9583 35.75 11.4831C35.9108 11.5776 36.0085 11.7548 36.1382 11.892C36.6527 12.438 37.1024 13.0528 37.7046 13.5075C38.19 13.873 38.5244 14.3394 38.9445 14.7403C39.6709 15.4327 40.2444 16.2554 40.8734 17.0298C41.5063 17.8091 42.1628 18.5757 42.7392 19.3889C42.9792 19.7285 43.0389 20.1746 43.1866 20.5879C42.6937 20.9132 42.2787 21.1878 41.6386 21.6111C41.1808 21.8028 41.0538 21.0597 40.5652 20.8593C40.3839 20.9638 40.2213 21.0583 40.1104 21.1221C39.5238 20.9717 38.9721 20.8302 38.1703 20.6244C36.6388 19.2754 34.8395 17.8316 33.1888 16.2366C32.4044 15.4795 31.5016 14.7605 30.519 14.1448C29.8169 13.705 29.3104 13.0205 28.6937 12.4624C27.0597 10.9847 25.4217 9.47009 24.096 7.77021C22.8512 6.17294 21.259 4.78103 20.4103 2.63255Z" fill="#FF6E31"/>
</g>
<defs>
<clipPath id="clip0_18_222">
<rect width="52.7389" height="66.1" fill="white" transform="matrix(0.997932 0.064281 -0.121659 0.992572 8.04163 0)"/>
</clipPath>
</defs>
</svg>
