<svg width="79" height="72" viewBox="0 0 79 72" fill="none" xmlns="http://www.w3.org/2000/svg">
<g clip-path="url(#clip0_18_229)">
<path fill-rule="evenodd" clip-rule="evenodd" d="M14.7333 14.6029L13.5092 14.4566C13.3557 14.1954 13.1957 13.923 13.0346 13.6472C12.8277 13.7351 12.6788 13.7981 12.4539 13.8933C12.0512 13.6636 11.6351 13.426 11.2262 13.1928C11.2433 12.9302 11.2581 12.705 11.2738 12.4699C10.9553 12.5471 10.7046 12.6084 10.4697 12.6657C10.3003 12.2169 10.1508 11.8223 9.98957 11.3953C10.0711 11.3869 10.2754 11.365 10.5448 11.3364L10.7042 10.7889C11.685 10.6818 12.5402 10.2179 13.525 10.5294C13.7269 10.0515 14.4176 9.96878 14.845 9.95493C15.8581 9.92254 16.8258 9.49342 17.742 9.59017C18.8109 9.70337 19.7364 9.39676 20.7166 9.32549C21.893 9.23953 23.1062 9.14254 24.2953 8.98137C25.4548 8.82439 26.6947 8.58621 27.9218 8.76098C30.1013 8.21472 32.3959 8.39674 34.6287 8.20457C36.3676 8.05508 38.1454 7.82216 39.9372 7.94411C40.5605 7.98636 41.2738 7.61808 41.726 8.34125C42.3627 7.80993 43.0052 7.55122 43.9142 7.68162C44.5523 7.77285 45.2577 7.74864 45.9162 7.6816C47.6399 7.50759 49.3589 7.59179 51.0794 7.5554C52.6593 7.52174 54.2409 7.63401 55.7936 7.58528C57.8861 7.51935 59.7936 7.96836 61.797 8.11785C62.15 8.14415 62.4508 8.38165 62.8064 8.46273C63.1917 8.55052 63.748 8.47672 63.9834 8.63968C64.2891 8.85143 64.5962 8.7297 64.874 8.80375C65.284 8.91311 65.6794 9.04752 66.1629 9.19654C66.2842 9.44573 66.8887 9.61193 66.7571 10.0592C66.7236 10.1719 66.9732 10.4246 67.1286 10.4368C68.3056 10.5298 68.3832 11.2214 68.7246 11.8378C68.6045 12.9434 67.6183 13.6104 66.008 13.9024C65.7963 13.9411 65.5739 13.9754 65.3589 13.9733C64.5147 13.9646 63.6472 13.8414 62.8344 13.949C61.9408 14.067 61.1352 13.953 60.2967 13.8682C59.4916 13.7866 58.5935 13.5167 57.9056 13.6824C57.1389 13.8673 56.4025 13.3412 55.7538 13.8139C55.3257 13.3546 54.6186 13.8807 54.1329 13.6261C53.4545 13.8996 52.7887 13.6294 52.1238 13.6525C51.5076 13.6738 50.8849 13.6543 50.2892 13.6889C48.3266 13.8048 46.3801 13.7793 44.43 13.7051C43.4592 14.1039 42.4568 13.4952 41.4417 13.8288C40.5703 14.1151 39.5701 13.9243 38.647 13.9534C37.5981 13.9865 36.5115 13.977 35.4454 13.9694C34.4496 13.9626 33.4481 14.0322 32.4433 14.0406C30.962 14.0529 29.4767 14.3162 27.9776 14.2152C27.2086 14.6458 26.3553 14.0931 25.5009 14.3891C24.7841 14.638 23.8459 14.5831 23.0665 14.5763C21.1637 14.5591 19.3541 14.9829 17.484 15.0373C17.041 15.0502 16.5976 15.0671 16.084 15.0848C16.1043 14.7839 16.1191 14.5587 16.143 14.2029C15.6535 14.3415 15.2624 14.4527 14.7333 14.6029Z" fill="#FF6E31"/>
<path fill-rule="evenodd" clip-rule="evenodd" d="M39.821 31.6783C39.935 31.6242 40.0337 31.5775 40.1318 31.5306C40.2871 31.7966 40.4432 32.0622 40.6361 32.3917C40.8089 32.1899 40.92 32.0597 41.0977 31.8526C41.595 31.9565 42.3078 31.9591 42.6093 32.203C43.0989 32.5983 43.6171 32.1777 44.0883 32.362C44.5157 32.5293 45.2274 32.4609 45.5096 32.6807C45.9697 33.039 46.5675 32.9406 47.065 33.0958C47.5529 33.2477 47.9915 33.4717 48.487 33.6793C48.7925 33.6514 49.1536 33.6182 49.6285 33.5751C49.7335 33.8101 49.8367 34.0444 50.0187 34.4543C50.3116 34.0803 50.4088 33.9571 50.5654 33.7565C51.9755 34.5778 53.99 34.449 55.4243 35.1919C55.4279 35.3222 55.432 35.4348 55.4417 35.7324C55.6659 35.465 55.7603 35.3514 55.8712 35.2199C56.2539 35.3414 56.6637 35.4716 57.0897 35.6074C57.0652 35.7979 57.0404 35.9897 57.0041 36.2704C57.1938 36.2078 57.3099 36.1694 57.485 36.1114C57.6553 36.1993 57.8512 36.3008 58.1281 36.4438C58.3003 36.2737 58.4484 36.1275 58.591 35.9866C58.9236 36.2211 59.2573 36.4566 59.6518 36.7348C59.6372 36.8484 59.6122 37.0406 59.5807 37.2892C60.0205 37.1988 60.4153 37.1179 60.9245 37.0131C61.3562 37.6934 62.5188 38.1238 62.6716 38.9873C62.4762 39.0897 62.3385 39.1618 62.2002 39.2338C62.4662 39.5025 62.6376 39.4572 63.1406 38.9843C63.255 38.9925 63.3718 38.9942 63.4817 39.0133C63.5269 39.0209 63.5573 39.0663 63.6831 39.1617C63.525 39.3199 63.3492 39.4954 63.1547 39.6901C63.2082 39.9003 63.2698 40.1419 63.3537 40.4697C62.9443 40.3064 62.6948 40.2076 62.3852 40.0839C62.4073 40.3816 62.4234 40.6028 62.4515 40.9775C61.8974 40.7152 61.5532 40.5519 61.1603 40.3661C61.285 40.2934 61.4032 40.2249 61.5469 40.1412C61.2784 40.0011 61.0072 39.8589 60.6754 39.6848L60.4409 40.4903C60.0062 40.5814 59.6375 40.6585 59.2407 40.7418C58.4853 40.4078 57.716 40.0671 56.9303 39.7195C56.5173 39.7768 55.087 39.4711 54.4822 39.1836C54.3436 39.2429 54.2005 39.3043 53.9859 39.3958C53.6666 39.2378 53.3178 39.0654 52.9512 38.884C53.0889 38.8097 53.2176 38.7392 53.3467 38.6693C53.281 38.6211 53.202 38.5186 53.1403 38.5244C52.4363 38.5869 51.7117 38.8607 51.1254 38.3104C51.0166 38.2084 50.5021 38.3108 50.1756 38.3226C48.6801 38.3764 47.4083 38.0792 46.4397 37.302C46.1554 37.3202 45.8293 37.387 45.538 37.3481C45.1945 37.3026 44.7075 37.0206 44.5827 37.0915C43.9384 37.4584 43.8197 36.9036 43.4331 36.8542C43.0562 36.8056 42.7113 36.7489 42.3482 36.5761C41.7339 36.283 40.9471 36.1427 40.2092 35.9864C37.7283 35.4617 35.3511 34.7954 33.0485 33.9728C31.2708 33.3382 29.4367 32.7704 27.7723 32.0072C26.6511 31.4937 25.4151 30.9938 24.6247 30.2797C23.9102 29.6355 23.0172 29.0335 22.5618 28.181C22.6874 28.0893 22.8391 27.9781 23.0143 27.8497C22.9577 27.7816 22.8778 27.6867 22.7856 27.5777C23.2724 27.3598 23.7667 27.1388 24.3225 26.8901C24.8211 27.0641 25.3306 27.2848 25.4883 27.8484C25.6418 27.5544 25.7528 27.3407 25.8734 27.11L26.3686 27.1691C26.4104 27.3357 26.4463 27.4821 26.4831 27.6318C26.6944 27.5721 26.8884 27.5172 27.1522 27.4425C27.3001 27.5528 27.4467 27.6629 27.5903 27.77C27.9046 27.6328 28.2381 27.486 28.5819 27.336C28.8996 27.7439 29.1001 28.0993 29.4238 28.3895C29.7381 28.6712 30.6049 28.5388 30.6099 29.1672C30.518 29.2338 30.3652 29.344 30.1272 29.5158C30.4861 29.5719 30.816 29.6235 31.2733 29.695C31.0939 29.4888 31.0096 29.3911 30.831 29.1845C31.2661 29.2529 31.6473 29.2394 31.8677 29.3611C32.3892 29.649 32.9552 29.8365 33.559 30.0321C34.1278 30.2163 34.6908 30.3326 35.282 30.4491C35.8077 30.5527 36.2873 30.7558 36.8122 30.8625C37.3664 30.9746 37.9785 30.9765 38.5127 31.1166C38.9889 31.2411 39.3924 31.4881 39.821 31.6783Z" fill="#FF6E31"/>
<path fill-rule="evenodd" clip-rule="evenodd" d="M42.0019 62.7804L41.7091 63.7859C40.9913 64.145 40.2459 64.2725 39.2334 64.0789C39.1693 63.9568 39.0509 63.7316 38.912 63.4657C37.622 63.815 37.4923 62.7069 36.5418 62.7667C35.4188 62.0215 34.693 61.0831 33.515 60.409C33.3426 60.3103 33.2463 60.1499 33.1168 60.0168C32.2063 59.0832 31.1302 58.2496 29.9858 57.4464C29.1986 56.8934 28.5279 56.2572 27.866 55.627C27.1437 54.9392 26.3695 54.2937 25.4032 53.7602C25.2294 53.6641 25.1374 53.5001 25.0041 53.3688C24.4756 52.8467 24.0292 52.2691 23.3896 51.8204C22.8741 51.4596 22.5433 51.022 22.1066 50.6352C21.3515 49.9671 20.7866 49.1964 20.1526 48.4638C19.5146 47.7266 18.8481 46.9987 18.2789 46.2361C18.0419 45.9177 18.0239 45.5197 17.9013 45.1437C18.5035 44.8961 19.0108 44.687 19.7932 44.3647C20.3402 44.2321 20.4017 44.8973 20.9397 45.1127C21.1595 45.035 21.3567 44.9646 21.4913 44.9171C22.1473 45.0963 22.7643 45.2649 23.6609 45.5101C25.2655 46.8208 27.1666 48.2364 28.88 49.7735C29.6943 50.5032 30.6488 51.2088 31.7064 51.8295C32.4623 52.273 32.966 52.9165 33.6103 53.4575C35.3179 54.8899 37.0259 56.3551 38.3546 57.9588C39.602 59.4657 41.2713 60.8191 42.0019 62.7804Z" fill="#FF6E31"/>
</g>
<defs>
<clipPath id="clip0_18_229">
<rect width="60.4298" height="66.7579" fill="white" transform="matrix(-0.992937 -0.118644 0.27957 -0.960125 60.003 71.2655)"/>
</clipPath>
</defs>
</svg>
