<svg width="272" height="212" viewBox="0 0 272 212" fill="none" xmlns="http://www.w3.org/2000/svg">
<path fill-rule="evenodd" clip-rule="evenodd" d="M271.947 25.0936C261.949 29.3541 251.19 32.2234 239.905 33.5189C251.425 26.8934 260.272 16.4073 264.433 3.9127C253.664 10.0513 241.709 14.4945 229.009 16.903C218.83 6.50382 204.318 0 188.284 0C157.474 0 132.493 23.9632 132.493 53.5173C132.493 57.7083 132.991 61.7949 133.943 65.7163C87.5702 63.4904 46.4636 42.1791 18.9444 9.79918C14.1403 17.7029 11.3938 26.8935 11.3938 36.7014C11.3938 55.2651 21.2286 71.6464 36.2119 81.2456C27.0569 80.9673 18.464 78.5588 10.9315 74.5504V75.2199C10.9315 101.157 30.175 122.781 55.682 127.711C51.0048 128.929 46.0738 129.589 40.9887 129.589C37.3902 129.589 33.8914 129.25 30.4832 128.624C37.5806 149.883 58.1928 165.36 82.6029 165.795C63.5135 180.142 39.4569 188.706 13.3154 188.706C8.80141 188.706 4.35993 188.454 0 187.95C24.6911 203.131 54.0141 212 85.5216 212C188.139 212 244.256 130.45 244.256 59.7342C244.256 57.4126 244.21 55.0999 244.092 52.8131C255.006 45.2485 264.469 35.8232 271.947 25.0936Z" fill="white"/>
</svg>
